<svg width="450" height="75" viewBox="0 0 450 75" fill="none" xmlns="http://www.w3.org/2000/svg">
<rect y="33" width="450" height="33" fill="#5297FF" fill-opacity="0.25"/>
<path d="M7.74648 20H22.7965L27.1965 26.7V50.2L22.6465 55H7.64648L3.09648 48.3V24.8L7.74648 20ZM9.14648 47.2L10.5965 49.35H20.1965L21.1465 48.35V27.8L19.6965 25.65H10.0465L9.14648 26.65V47.2ZM41.777 27.45H52.777L57.177 34.15V50.25L52.577 55H41.877L39.127 53.4V65.8H33.077V27.45H39.127V29.1L41.777 27.45ZM39.127 47.2L40.577 49.4H50.227L51.127 48.45V35.3L49.677 33.1H40.077L39.127 34.05V47.2ZM67.7574 27.35H82.5074L87.0574 34.15L78.2074 43.25H69.0574V46.85L70.6574 49.2H80.2574L83.0074 46.35L86.5074 50.75L82.4074 55H67.6574L63.3074 48.5V31.95L67.7574 27.35ZM69.0574 34.35V38.2H76.0074L79.7074 34.3L78.9074 33.15H70.2074L69.0574 34.35ZM93.0379 27.45H99.0879V29.1L101.838 27.45H112.688L117.188 34.1V55H111.138V35.2L109.688 33.05H99.9879L99.0879 34.1V55H93.0379V27.45Z" fill="#666666"/>
<path d="M123.468 20H140.468L147.668 30.75V50.25L143.118 55H123.468V20ZM129.518 25.65V49.4H140.618L141.618 48.4V31.9L137.368 25.65H129.518ZM157.699 27.35H172.449L176.999 34.15L168.149 43.25H158.999V46.85L160.599 49.2H170.199L172.949 46.35L176.449 50.75L172.349 55H157.599L153.249 48.5V31.95L157.699 27.35ZM158.999 34.35V38.2H165.949L169.649 34.3L168.849 33.15H160.149L158.999 34.35ZM191.679 27.45H202.679L207.079 34.15V50.25L202.479 55H191.779L189.029 53.4V65.8H182.979V27.45H189.029V29.1L191.679 27.45ZM189.029 47.2L190.479 49.4H200.129L201.029 48.45V35.3L199.579 33.1H189.979L189.029 34.05V47.2ZM213.91 17.6H221.36L226.11 20.4V47.25L227.56 49.4H236.06V55H224.61L220.11 48.35V23.2H213.91V17.6ZM247.59 27.45H262.64L267.14 34.15V50.25L262.54 55H247.54L242.99 48.3V32.2L247.59 27.45ZM248.99 47.2L250.44 49.35H260.14L261.04 48.4V35.2L259.59 33.05H249.94L248.99 34.1V47.2ZM290.971 27.45H297.021V56.8L288.321 65.85H272.921V60.2H285.821L290.971 55H278.371L272.921 46.95V27.45H278.971V45.85L281.421 49.4H290.971V27.45ZM301.901 27.45H307.951V29.1L310.651 27.45H313.551L315.651 30.55L320.751 27.45H323.551L328.051 34.1V55H322.001V35.2L320.601 33.05H318.951L318.051 34.1V41.15H312.001V35.2L310.551 33.05H308.851L307.951 34.1V55H301.901V27.45ZM337.582 27.35H352.332L356.882 34.15L348.032 43.25H338.882V46.85L340.482 49.2H350.082L352.832 46.35L356.332 50.75L352.232 55H337.482L333.132 48.5V31.95L337.582 27.35ZM338.882 34.35V38.2H345.832L349.532 34.3L348.732 33.15H340.032L338.882 34.35ZM362.862 27.45H368.912V29.1L371.662 27.45H382.512L387.012 34.1V55H380.962V35.2L379.512 33.05H369.812L368.912 34.1V55H362.862V27.45ZM397.693 17.6H403.743V27.4H411.843V33.05H403.743V47.2L405.143 49.35H409.343L412.893 45.8L416.093 50.45L411.843 55H402.193L397.693 48.4V33.05H393.693V27.4H397.693V17.6ZM427.923 27.1H442.523L445.923 32.05L442.023 36.1L439.623 32.6H430.423L429.523 33.4V35.7L430.923 37.75H442.623L446.523 43.55V50.6L442.573 55H425.923L423.223 50.8L427.123 46.8L428.873 49.35H439.973L440.473 48.8V44.75L439.523 43.35H427.823L423.523 36.9V31.4L427.923 27.1Z" fill="#111111"/>
</svg>
